<?xml version="1.0" encoding="UTF-8" standalone="no"?>
<!DOCTYPE svg PUBLIC "-//W3C//DTD SVG 1.1//EN" "http://www.w3.org/Graphics/SVG/1.1/DTD/svg11.dtd">
<svg width="100%" height="100%" viewBox="0 0 800 600" version="1.1" xmlns="http://www.w3.org/2000/svg" xmlns:xlink="http://www.w3.org/1999/xlink" xml:space="preserve" xmlns:serif="http://www.serif.com/" style="fill-rule:evenodd;clip-rule:evenodd;stroke-linejoin:round;stroke-miterlimit:2;">
    <g id="blue-points" serif:id="blue points" transform="matrix(0.16127,0,0,0.171044,117.143,87.8788)">
        <g transform="matrix(2.44688,0,0,2.44688,-2628.75,1693.11)">
            <circle cx="1244.17" cy="273.882" r="93.847" style="fill:rgb(0,153,255);"/>
        </g>
        <g transform="matrix(2.44688,0,0,2.44688,-2539.44,1985.69)">
            <circle cx="1244.17" cy="273.882" r="93.847" style="fill:rgb(0,153,255);"/>
        </g>
        <g transform="matrix(2.44688,0,0,2.44688,-2909.73,2094.31)">
            <circle cx="1244.17" cy="273.882" r="93.847" style="fill:rgb(0,153,255);"/>
        </g>
        <g transform="matrix(2.44688,0,0,2.44688,-2450.47,1526.43)">
            <circle cx="1244.17" cy="273.882" r="93.847" style="fill:rgb(0,153,255);"/>
        </g>
    </g>
    <g id="shapes-joined" serif:id="shapes joined" transform="matrix(0.209029,0,0,0.221697,-94.4639,-33.3187)">
        <path d="M1838.27,1724.14L1837.6,1724.46L1838.06,1725.19L1838.41,1724.66L1838.48,1724.21L1838.27,1724.14Z" style="fill:rgb(0,102,255);"/>
        <g transform="matrix(1,0,0,1,1196.71,595.994)">
            <path d="M2128.23,1133.08L2128.43,1132.83C2187.43,1059.09 2238.43,978.892 2285.2,896.599C2340.37,799.528 2389.7,699.794 2433.89,595.289C2437.24,587.369 2440.55,579.427 2443.76,571.435L2444.14,570.498L2449.49,558.386C2451.57,554.493 2453.51,550.519 2455.73,546.707C2484.58,497.282 2538.29,463.393 2596.27,459.324C2605.08,458.706 2613.92,459.077 2622.74,459.449C2634.42,460.821 2637.41,460.841 2648.89,463.518C2700.5,475.554 2745.82,512.046 2768.58,559.895C2785.64,595.763 2790.16,637.452 2781.13,676.194C2778.45,687.671 2777.14,690.366 2773.21,701.447C2749.6,760.759 2722.84,818.998 2695.03,876.703C2631.73,1008.07 2561.14,1135.72 2478.07,1255.67C2412.7,1350.05 2340.92,1440.31 2251.85,1515.28C2243.18,1482.13 2234.08,1449.04 2224.55,1416.03C2196.85,1320.1 2165.82,1225.12 2128.23,1133.08Z" style="fill:rgb(51,204,0);"/>
        </g>
        <g transform="matrix(1,0,0,1,1196.71,595.994)">
            <path d="M657.448,1096.48C677.094,1063.06 699.084,1031.26 725.055,1002.77C743.203,982.857 763.303,963.903 787.584,952.779C803.665,945.411 822.296,943.865 839.416,948.934C858.124,954.473 872.873,969.153 885.701,984.28C908.169,1010.77 925.543,1041.34 941.696,1072.31C957.876,1103.34 972.727,1135.07 987.146,1167.04C970.73,1199.8 952.872,1231.62 930.687,1260.26C918.621,1275.84 905.33,1290.82 888.468,1300.3C869.675,1310.87 845.878,1311.53 824.964,1304.86C803.24,1297.93 783.499,1285.04 765.313,1270.75C719.235,1234.53 681.963,1187.95 648.321,1139.77L641.079,1129.23L649.585,1112.48L657.448,1096.48Z" style="fill:rgb(51,204,0);"/>
        </g>
        <g transform="matrix(1,0,0,-1,726.378,2952.95)">
            <path d="M1111.41,1227.56C1102.13,1209.35 1092.5,1191.5 1082.3,1173.81C1087.69,1185.26 1093.27,1196.59 1099.02,1207.84C1102.71,1215.04 1106.4,1222.16 1110.25,1229.28L1111.41,1227.56Z" style="fill:rgb(255,102,0);stroke:rgb(255,102,0);stroke-width:0.77px;"/>
        </g>
        <g transform="matrix(1,0,0,1,726.378,595.999)">
            <path d="M624.012,1595.04C706.457,1634.03 796.77,1655.4 889.038,1661.47C880.88,1667.63 872.182,1673.02 863.039,1677.6C811.868,1703.22 748.366,1702.24 697.588,1673.96C665.644,1656.17 639.836,1628.1 624.012,1595.04Z" style="fill:rgb(0,102,255);"/>
        </g>
        <g transform="matrix(1,0,0,1,726.378,595.999)">
            <path d="M711.942,1148.59C727.512,1178.41 743.808,1207.86 760.843,1236.9C769.343,1251.39 778.036,1265.78 786.953,1280.01C749.467,1264.09 715.719,1240.6 688.982,1210.58C696.308,1189.81 703.941,1169.14 711.942,1148.59Z" style="fill:rgb(0,102,255);"/>
        </g>
        <g transform="matrix(1,0,0,1,726.378,595.999)">
            <path d="M2288.01,680.464C2352.57,491.699 2407.46,299.764 2457.84,106.303C2493.25,-29.677 2526.81,-166.413 2556.14,-304.246L2556.38,-305.412C2557.46,-309.694 2558.37,-314.019 2559.61,-318.257C2571.93,-360.601 2600.57,-397.886 2638.66,-420.694C2661.39,-434.305 2687.2,-442.721 2713.59,-445.122C2722.38,-445.922 2731.22,-445.734 2740.05,-445.545C2751.75,-444.414 2754.75,-444.457 2766.28,-442.018C2826.64,-429.252 2878.57,-383.229 2898,-323.658C2906.21,-298.468 2908.67,-271.43 2905.14,-245.172C2903.37,-232.022 2900.12,-219.154 2897.29,-206.187C2855.49,-14.963 2807.94,174.393 2755.77,362.14C2694.71,581.888 2627.42,800.25 2543.95,1011.62C2538.04,999.548 2531.94,987.579 2525.68,975.684C2471.88,873.403 2405.54,774.968 2316.22,701.919C2307.08,694.44 2297.67,687.27 2288.01,680.464Z" style="fill:rgb(0,102,255);"/>
        </g>
        <g transform="matrix(4.78404,0,0,4.51066,451.919,150.289)">
            <path d="M187.297,451.256C187.461,451.65 187.631,452.041 187.806,452.428C185.399,451.227 183.026,449.945 180.688,448.586C157.984,435.387 138.999,415.092 127.445,390.198C125.73,386.503 124.161,382.72 122.942,378.821L122.17,376.001C121.979,375.044 121.755,374.093 121.598,373.129C119.409,359.645 124.331,345.178 134.398,336.292C142.204,329.401 152.768,326.152 162.827,327.532C174.683,329.159 185.584,337.206 191.083,348.696C192.199,351.026 192.352,351.67 193.212,354.112C193.179,354.007 193.145,353.902 193.111,353.798C193.074,353.683 193.005,353.487 193.033,353.563C194.467,357.469 196.66,360.952 199.068,364.247C199.808,365.259 200.58,366.243 201.387,367.195L201.518,367.351C207.086,373.931 214.091,379.086 221.867,382.589C230.514,397.262 240.142,411.284 251.234,423.908C253.984,427.038 256.851,430.097 259.832,433.046L260.073,433.284C270.286,443.363 281.813,452.178 294.464,458.311C282.697,464.219 269.724,467.441 256.534,467.561C252.079,467.602 247.631,467.47 243.204,467.156C243.456,466.958 243.705,466.756 243.951,466.551L244.099,466.427C243.804,466.675 243.506,466.918 243.204,467.156C223.921,465.809 205.041,461.073 187.806,452.428C187.66,452.105 187.517,451.78 187.379,451.452L187.297,451.256ZM245.746,464.958C245.257,465.42 244.757,465.869 244.246,466.303L244.392,466.178C244.853,465.783 245.304,465.376 245.746,464.958ZM246.102,464.617C246.01,464.706 245.918,464.795 245.826,464.883L245.963,464.752L246.102,464.617ZM247.797,462.865C247.293,463.42 246.774,463.959 246.24,464.483L246.378,464.347C246.863,463.866 247.336,463.372 247.797,462.865ZM247.979,462.664L247.943,462.704L247.979,462.664L248.018,462.619L247.979,462.664ZM248.236,462.373L248.2,462.414L248.236,462.373L248.281,462.322L248.236,462.373ZM248.868,461.636C248.761,461.764 248.654,461.891 248.545,462.017C248.696,461.842 248.845,461.665 248.992,461.487L248.868,461.636ZM249.482,460.882L249.482,460.882L249.482,460.882ZM249.96,460.268C249.895,460.353 249.83,460.437 249.765,460.522L249.842,460.422L249.96,460.268ZM250.655,459.329C250.466,459.593 250.273,459.854 250.078,460.113L250.195,459.957C250.35,459.749 250.503,459.54 250.655,459.329ZM252.479,456.551C252.127,457.139 251.76,457.717 251.379,458.284C251.796,457.663 252.196,457.028 252.579,456.383L252.479,456.551ZM253.444,454.845L253.392,454.942L253.444,454.845L253.509,454.723L253.444,454.845ZM254.818,452.015C254.776,452.111 254.733,452.207 254.69,452.303L254.738,452.195L254.818,452.015ZM186.693,449.717C186.768,449.92 186.845,450.123 186.923,450.325C186.845,450.123 186.768,449.92 186.693,449.717ZM255.837,449.448L255.809,449.526C255.841,449.438 255.872,449.35 255.903,449.262L255.837,449.448ZM186.286,448.561C186.362,448.787 186.439,449.012 186.519,449.236C186.439,449.012 186.362,448.787 186.286,448.561ZM256.31,448.045L256.34,447.948L256.399,447.759L256.34,447.948L256.31,448.045ZM256.825,446.264C256.795,446.382 256.764,446.5 256.731,446.617C256.679,446.809 256.625,446.999 256.569,447.19L256.513,447.38C256.589,447.127 256.661,446.872 256.731,446.617C256.764,446.5 256.795,446.382 256.825,446.264ZM185.065,444.096C185.259,445.01 185.485,445.915 185.741,446.809C185.505,445.983 185.294,445.149 185.11,444.307L185.065,444.096ZM257.041,445.376C257.013,445.495 256.985,445.613 256.957,445.732L256.914,445.91C256.958,445.732 256.999,445.554 257.041,445.376ZM257.502,443.299L257.497,443.326L257.521,443.204L257.502,443.299ZM184.36,439.488C184.472,440.681 184.637,441.865 184.854,443.036C184.637,441.865 184.472,440.681 184.36,439.488ZM257.583,442.906L257.572,442.96L257.602,442.811L257.583,442.906ZM257.664,442.513L257.647,442.597L257.681,442.43L257.664,442.513ZM257.746,442.12L257.72,442.246L257.761,442.051L257.746,442.12ZM258.852,437.143L258.786,437.419C258.44,438.92 258.105,440.424 257.786,441.931C258.125,440.331 258.481,438.736 258.852,437.143ZM184.2,436.895C184.215,437.397 184.24,437.899 184.273,438.401C184.24,437.9 184.215,437.398 184.2,436.895ZM184.186,434.989C184.18,435.342 184.179,435.696 184.183,436.049L184.185,436.233C184.179,435.818 184.179,435.403 184.186,434.989ZM184.199,434.398C184.194,434.56 184.19,434.722 184.187,434.884C184.19,434.722 184.194,434.56 184.199,434.398ZM184.306,432.352C184.297,432.485 184.287,432.624 184.278,432.769C184.287,432.624 184.297,432.485 184.306,432.352ZM184.658,429.444C184.587,429.874 184.527,430.26 184.474,430.662C184.527,430.26 184.587,429.874 184.658,429.444ZM187.105,417.62C186.886,418.577 186.67,419.537 186.457,420.498C186.67,419.537 186.886,418.577 187.105,417.62ZM188.701,410.92C188.651,411.123 188.601,411.326 188.551,411.529C188.601,411.326 188.651,411.123 188.701,410.92ZM192.103,397.918C190.935,402.168 189.81,406.438 188.746,410.741C189.81,406.438 190.935,402.168 192.103,397.918ZM192.502,396.474L192.446,396.677L192.502,396.474L192.649,395.947L192.502,396.474ZM193.158,394.13C193.032,394.575 192.908,395.02 192.783,395.466C192.908,395.02 193.032,394.575 193.158,394.13ZM194.113,390.769C193.923,391.431 193.734,392.093 193.546,392.756C193.734,392.093 193.923,391.431 194.113,390.769ZM195.098,387.363C195.229,386.912 195.361,386.461 195.494,386.01L195.295,386.686L195.098,387.363ZM195.915,384.586C196.042,384.16 196.169,383.735 196.296,383.309L196.094,383.984L195.915,384.586ZM184.236,433.481C184.227,433.664 184.218,433.848 184.211,434.031L184.219,433.847C184.227,433.664 184.236,433.481 184.246,433.297L184.236,433.481ZM184.89,428.06C184.825,428.45 184.767,428.793 184.714,429.108L184.84,428.363L184.89,428.06Z" style="fill:rgb(51,204,0);"/>
        </g>
        <g transform="matrix(1,0,0,1,726.378,595.999)">
            <path d="M2173.77,1073.98C2181.82,1086.52 2189.45,1099.35 2196.82,1112.33C2211.57,1138.32 2236.15,1166.93 2248.93,1194.11C2249.9,1196.17 2299.75,1256.01 2305.03,1271.6C2309.32,1284.28 2299.66,1338.36 2272.37,1275.48C2248.92,1221.43 2258.21,1240.58 2247.22,1217.48C2234.97,1191.72 2244.75,1212.39 2220.99,1166.56C2202.73,1131.33 2192.33,1112.47 2173.77,1073.98Z" style="fill:rgb(255,102,0);"/>
        </g>
        <g id="green-points" serif:id="green points" transform="matrix(0.771521,0,0,0.771521,451.919,150.289)">
            <g transform="matrix(2.44688,0,0,2.44688,-2225.6,1313.41)">
                <circle cx="1244.17" cy="273.882" r="93.847" style="fill:rgb(0,255,0);"/>
            </g>
            <g transform="matrix(2.44688,0,0,2.44688,-2101.23,1412.91)">
                <circle cx="1244.17" cy="273.882" r="93.847" style="fill:rgb(0,255,0);"/>
            </g>
            <g transform="matrix(2.44688,0,0,2.44688,-2101.23,994.525)">
                <circle cx="1244.17" cy="273.882" r="93.847" style="fill:rgb(0,255,0);"/>
            </g>
            <g transform="matrix(2.44688,0,0,2.44688,-2370.58,700.155)">
                <circle cx="1244.17" cy="273.882" r="93.847" style="fill:rgb(0,255,0);"/>
            </g>
        </g>
        <g transform="matrix(4.78404,0,0,4.51066,451.919,150.289)">
            <path d="M294.164,458.166C281.524,451.985 270.021,443.141 259.832,433.046L260.05,432.134L260.04,432.176L259.832,433.046C256.851,430.097 253.984,427.038 251.234,423.908C240.142,411.284 230.514,397.262 221.867,382.589L221.518,381.997C219.775,379.032 218.073,376.041 216.408,373.03C212.847,366.592 209.441,360.063 206.186,353.452L205.595,352.252C193.214,327.034 182.895,300.668 173.945,273.833C171.424,266.276 168.978,258.674 166.827,251.024L166.136,248.181C165.702,245.615 165.524,244.978 165.363,242.371C164.52,228.723 170.845,214.879 181.735,207.162C186.34,203.898 191.642,201.752 197.126,200.931C199.565,200.566 200.189,200.621 202.646,200.547C203.568,200.593 204.49,200.639 205.411,200.685C206.327,200.803 207.248,200.886 208.159,201.041C218.186,202.746 227.442,209.05 233.077,217.994C234.615,220.436 235.894,223.061 236.881,225.805C237.894,228.621 238.622,231.546 239.5,234.418C243.122,246.263 247.098,257.969 251.437,269.518C251.153,269.854 250.871,270.191 250.59,270.529C250.871,270.191 251.153,269.854 251.437,269.518C255.484,280.309 259.847,290.964 264.528,301.475C271.812,317.827 279.78,333.902 289.456,348.802C289.644,349.092 289.763,349.268 289.829,349.379L291.2,351.494C298.233,362.177 306.023,372.503 315.655,380.532C319.457,383.701 323.583,386.56 328.124,388.096C332.495,389.574 337.47,389.427 341.398,387.084C344.923,384.983 347.701,381.661 350.223,378.208C354.86,371.858 358.593,364.803 362.025,357.539L364.968,364.502L366.759,368.751C370.938,378.665 375.151,388.569 379.938,398.177C386.308,410.962 393.681,423.291 402.701,433.906C397.727,439.792 392.246,445.158 386.186,449.771C375.852,457.637 363.942,463.174 351.428,465.759C335.545,469.041 318.839,467.75 303.52,462.159C300.439,461.034 297.417,459.745 294.463,458.312L294.164,458.166ZM296.15,457.451C296.429,457.304 296.708,457.156 296.986,457.006L296.568,457.229L296.15,457.451ZM305.489,451.779C305.337,451.885 305.184,451.99 305.032,452.095L305.097,452.05L305.489,451.779ZM310.64,447.922C309.635,448.728 308.614,449.515 307.577,450.281C308.614,449.515 309.635,448.728 310.64,447.922ZM313.212,445.79C312.882,446.073 312.55,446.353 312.217,446.632L312.549,446.353C312.882,446.073 313.212,445.791 313.541,445.507L313.212,445.79ZM316.134,443.19C315.601,443.682 315.064,444.168 314.522,444.648L314.196,444.936C314.849,444.362 315.495,443.78 316.134,443.19ZM320.687,438.744C319.675,439.788 318.645,440.813 317.596,441.816C318.645,440.813 319.675,439.788 320.687,438.744ZM321.406,437.996L321.237,438.172L321.406,437.996L321.671,437.717L321.406,437.996ZM329.148,429.079C327.538,431.104 325.878,433.082 324.163,435.004C325.878,433.082 327.538,431.104 329.148,429.079ZM261.517,426.229L261.501,426.291L261.533,426.166L261.517,426.229ZM332.357,424.892C332.27,425.01 332.183,425.128 332.095,425.245L332.357,424.892ZM333.911,422.754C333.693,423.059 333.474,423.364 333.254,423.667C333.474,423.363 333.693,423.059 333.911,422.754ZM262.539,422.28C262.539,422.28 262.539,422.28 262.539,422.28ZM336.067,419.663C335.642,420.287 335.213,420.908 334.78,421.525C335.213,420.908 335.642,420.287 336.067,419.663ZM262.803,421.28L262.794,421.314L262.809,421.257L262.803,421.28ZM337.665,417.279C337.419,417.653 337.171,418.026 336.922,418.398L337.167,418.031C337.334,417.781 337.5,417.53 337.665,417.279ZM263.729,417.832C263.729,417.832 263.729,417.832 263.729,417.832ZM264.14,416.332L264.121,416.402L264.161,416.255L264.14,416.332ZM264.961,413.387C264.961,413.387 264.961,413.387 264.961,413.387ZM342.123,410.183C341.628,411.008 341.127,411.83 340.62,412.649C341.127,411.83 341.628,411.008 342.123,410.183ZM265.529,411.39L265.503,411.48L265.548,411.323L265.529,411.39ZM342.358,409.791C342.582,409.416 342.805,409.04 343.027,408.664L342.577,409.424L342.358,409.791ZM266.236,408.948C266.236,408.948 266.236,408.948 266.236,408.948ZM266.973,406.456L266.942,406.56L267.012,406.328L266.973,406.456ZM344.609,405.938L344.401,406.301L344.609,405.938L344.788,405.624L344.609,405.938ZM345.355,404.623L345.171,404.949L345.355,404.623L345.624,404.143L345.355,404.623ZM267.557,404.517C267.557,404.517 267.557,404.517 267.557,404.517ZM268.474,401.533L268.418,401.715L268.522,401.382L268.474,401.533ZM268.925,400.095C268.925,400.095 268.925,400.095 268.925,400.095ZM270.034,396.623L269.975,396.807L269.982,396.787L270.114,396.382L270.034,396.623ZM271.655,391.731L271.55,392.05L271.757,391.438L271.655,391.731ZM255.048,389.046L255.256,389.046C255.118,389.046 254.979,389.046 254.84,389.045L255.048,389.046ZM256.296,389.022C256.157,389.028 256.019,389.033 255.88,389.036L256.088,389.03L256.296,389.022ZM257.333,388.957C257.126,388.975 256.919,388.99 256.711,389.002L256.919,388.989C256.988,388.984 257.057,388.979 257.126,388.974L257.333,388.957ZM249.249,388.867C249.558,388.885 249.866,388.901 250.175,388.916C249.867,388.901 249.558,388.885 249.249,388.867ZM258.157,388.867C258.02,388.885 257.883,388.901 257.746,388.916L257.952,388.893L258.157,388.867ZM258.771,388.775C258.703,388.786 258.635,388.797 258.567,388.808L258.771,388.775C258.839,388.763 258.907,388.751 258.975,388.739L258.771,388.775ZM259.582,388.614L259.48,388.636L259.582,388.614L259.677,388.592L259.582,388.614ZM354.138,387.792C354.003,388.069 353.867,388.345 353.732,388.621C353.867,388.345 354.002,388.069 354.138,387.792ZM260.184,388.463L259.992,388.514L260.184,388.463L260.254,388.443L260.184,388.463ZM242.759,388.271C242.92,388.291 243.08,388.311 243.241,388.331L242.759,388.271C242.599,388.25 242.438,388.229 242.278,388.208L242.759,388.271ZM260.778,388.282L260.628,388.331L260.778,388.282L260.812,388.271L260.778,388.282ZM240.223,387.911C240.623,387.974 241.024,388.033 241.424,388.091C241.023,388.033 240.623,387.974 240.223,387.911ZM261.96,387.822C261.763,387.91 261.565,387.993 261.364,388.071L261.503,388.016C261.656,387.954 261.809,387.889 261.96,387.822ZM238.918,387.696C239.086,387.725 239.255,387.754 239.423,387.782C239.095,387.727 238.767,387.67 238.44,387.612L238.918,387.696ZM264.277,386.554C263.688,386.937 263.082,387.286 262.456,387.591C263.037,387.307 263.601,386.987 264.15,386.635L264.277,386.554ZM235.583,387.047C236.215,387.184 236.85,387.314 237.485,387.435L237.009,387.342C236.374,387.217 235.74,387.084 235.108,386.943L235.583,387.047ZM273.34,386.859L273.193,387.285L273.324,386.912L273.499,386.418L273.34,386.859ZM232.79,386.388C233.157,386.482 233.525,386.573 233.893,386.661C233.525,386.573 233.157,386.481 232.79,386.388ZM265.991,385.309C265.833,385.436 265.673,385.56 265.511,385.683L265.632,385.59C265.752,385.498 265.872,385.404 265.991,385.309ZM229.011,385.309L229.086,385.333C228.906,385.276 228.727,385.219 228.547,385.162L229.011,385.309ZM266.928,384.523C266.8,384.635 266.671,384.746 266.542,384.855L266.696,384.724L266.928,384.523ZM225.547,384.114L225.333,384.033L225.547,384.114ZM267.611,383.906C267.536,383.976 267.46,384.045 267.385,384.114L267.611,383.906C267.686,383.836 267.761,383.766 267.835,383.696L267.611,383.906ZM223.713,383.393C223.949,383.49 224.186,383.586 224.424,383.681L224.101,383.551C223.971,383.499 223.842,383.446 223.713,383.393ZM269.528,381.997C269.402,382.131 269.275,382.264 269.147,382.396C268.846,382.706 268.541,383.013 268.232,383.314C268.541,383.013 268.846,382.706 269.147,382.396C269.275,382.264 269.402,382.131 269.528,381.997ZM222.183,382.733C222.369,382.817 222.556,382.9 222.744,382.982L222.5,382.875L222.183,382.733ZM274.895,382.552C274.895,382.552 274.895,382.552 274.895,382.552ZM275.091,382.01L274.911,382.508L275.283,381.499L275.091,382.01ZM271.188,380.159C271.056,380.312 270.923,380.465 270.789,380.616L270.989,380.388C271.122,380.236 271.254,380.083 271.385,379.929L271.188,380.159ZM272.924,378.048C272.736,378.287 272.546,378.525 272.355,378.761C272.546,378.525 272.736,378.287 272.924,378.048ZM276.52,378.213C276.52,378.213 276.52,378.213 276.52,378.213ZM276.909,377.187L276.661,377.846C276.833,377.398 277.006,376.95 277.179,376.502L276.909,377.187ZM273.851,376.84C273.783,376.93 273.715,377.021 273.647,377.111C273.777,376.94 273.906,376.768 274.034,376.596L273.851,376.84ZM359.933,375.539L359.427,376.633L359.933,375.539L360.361,374.611L359.933,375.539ZM276.664,372.834C276.325,373.346 275.982,373.855 275.635,374.359L275.808,374.106C276.039,373.769 276.268,373.431 276.494,373.09L276.664,372.834ZM278.798,372.393L278.463,373.243C278.7,372.651 278.938,372.06 279.178,371.469L278.798,372.393ZM361.199,372.783L361.18,372.825L361.199,372.783L361.427,372.286L361.199,372.783ZM278.644,369.722C278.302,370.278 277.956,370.832 277.605,371.382C277.956,370.832 278.302,370.278 278.644,369.722ZM280.759,367.631L280.304,368.737C280.627,367.962 280.953,367.188 281.282,366.416L280.759,367.631ZM279.602,368.141L279.576,368.185C279.69,367.994 279.804,367.803 279.917,367.612L279.602,368.141ZM281.323,365.2C281.065,365.651 280.804,366.101 280.542,366.549L280.934,365.876L281.323,365.2ZM281.741,365.344C281.741,365.344 281.741,365.344 281.741,365.344ZM288.623,351.353C288.043,352.127 287.405,352.931 287.097,353.568C286.351,355.111 285.622,356.663 284.906,358.215L283.602,361.111L282.794,362.904L282.178,364.334C282.647,363.257 283.121,362.183 283.602,361.111C285.346,357.902 287.012,354.647 288.623,351.353ZM206.904,351.505C206.802,351.78 206.7,352.054 206.599,352.329C206.78,351.838 206.963,351.348 207.145,350.857L206.904,351.505ZM219.97,320.352C215.359,330.093 211.191,340.068 207.388,350.21L207.631,349.563C211.369,339.643 215.458,329.886 219.97,320.352ZM222.06,316.015C221.58,316.993 221.105,317.973 220.635,318.955C221.204,317.766 221.78,316.581 222.363,315.398L222.06,316.015ZM224.695,310.763L224.37,311.397L224.695,310.763L225.067,310.04L224.695,310.763ZM226.956,306.44C226.616,307.077 226.279,307.715 225.944,308.354C226.279,307.715 226.616,307.077 226.956,306.44ZM228.503,303.58L228.307,303.939C228.502,303.582 228.699,303.225 228.895,302.868L228.503,303.58ZM230.083,300.74L229.685,301.448C229.865,301.127 230.046,300.806 230.227,300.486L230.083,300.74ZM240.76,283.562C239.238,285.775 237.757,288.023 236.316,290.301L236.749,289.618C238.054,287.573 239.39,285.553 240.76,283.562ZM243.074,280.269C242.519,281.042 241.969,281.82 241.425,282.602C241.969,281.82 242.519,281.042 243.074,280.269ZM244.972,277.675C244.653,278.105 244.335,278.535 244.018,278.968L244.494,278.32L244.972,277.675ZM246.912,275.12C246.422,275.754 245.936,276.391 245.453,277.033L245.937,276.393C246.099,276.18 246.261,275.967 246.423,275.755L246.912,275.12ZM250.157,271.052L250.039,271.196L250.157,271.052L250.412,270.744L250.157,271.052ZM297.819,456.552C298.372,456.246 298.922,455.934 299.47,455.615L299.059,455.853C298.51,456.168 297.958,456.477 297.403,456.78L297.819,456.552ZM300.66,454.911C300.401,455.067 300.141,455.222 299.88,455.376L300.288,455.133L300.66,454.911ZM317.06,442.326C316.858,442.517 316.656,442.706 316.453,442.895L316.771,442.598L317.06,442.326ZM329.963,428.044C329.783,428.275 329.602,428.505 329.421,428.735L329.693,428.39L329.963,428.044Z" style="fill:rgb(255,102,0);stroke:rgb(255,102,0);stroke-width:0.17px;"/>
        </g>
        <g transform="matrix(4.78404,0,0,4.51066,451.919,150.289)">
            <path d="M527.015,367.027L527.026,367.045L527.015,367.027ZM570.258,465.609L570.188,465.623L570.086,465.644L569.889,465.685L569.788,465.705L569.59,465.745L569.491,465.765L569.29,465.804L569.195,465.823L568.988,465.863L568.898,465.88L568.686,465.921L568.601,465.937L568.381,465.978L568.304,465.992L568.074,466.034L568.007,466.046L567.764,466.09L567.71,466.099L567.448,466.145L567.413,466.152L567.124,466.201L567.115,466.203C566.199,466.359 565.28,466.5 564.36,466.627L564.353,466.628L564.058,466.668L564.04,466.671L563.755,466.708L563.729,466.712L563.452,466.747L563.42,466.752L563.149,466.786L563.112,466.79L562.845,466.823L562.805,466.827L562.54,466.859L562.499,466.863L562.235,466.894L562.193,466.898L561.929,466.928L561.888,466.932L561.621,466.961L561.582,466.965L561.307,466.994L561.277,466.997L560.972,467.028C561.074,467.017 561.175,467.007 561.277,466.997L561.28,466.997L561.307,466.994L561.553,466.968L561.582,466.965L561.588,466.965L561.621,466.961L561.843,466.937L561.888,466.932L561.897,466.931L561.929,466.928L562.134,466.905L562.193,466.898L562.205,466.897L562.235,466.894L562.424,466.872L562.499,466.863L562.513,466.862L562.54,466.859L562.714,466.838L562.805,466.827L562.82,466.826L562.845,466.823L563.004,466.803L563.112,466.79L563.128,466.788L563.149,466.786L563.294,466.767L563.42,466.752L563.436,466.75L563.452,466.747L563.584,466.731L563.729,466.712L563.743,466.71L563.755,466.708L563.874,466.693L564.04,466.671L564.051,466.669L564.058,466.668L564.164,466.654L564.353,466.628L564.358,466.627L564.36,466.627C565.28,466.5 566.199,466.359 567.115,466.203L567.117,466.202L567.124,466.201L567.343,466.164L567.413,466.152L567.423,466.15L567.448,466.145L567.631,466.114L567.71,466.099L567.729,466.096L567.764,466.09L567.919,466.062L568.007,466.046L568.034,466.041L568.074,466.034L568.207,466.01L568.304,465.992L568.34,465.985L568.381,465.978L568.494,465.957L568.601,465.937L568.645,465.929L568.686,465.921L568.782,465.903L568.898,465.88L568.95,465.87L568.988,465.863L569.069,465.847L569.195,465.823L569.254,465.811L569.29,465.804L569.357,465.791L569.491,465.765L569.559,465.751L569.59,465.745L569.644,465.734L569.788,465.705L569.864,465.69L569.889,465.685L569.931,465.676L570.086,465.644L570.168,465.628L570.188,465.623L570.217,465.617L570.258,465.609C570.43,465.573 570.603,465.537 570.776,465.5L570.258,465.609ZM577.665,463.73C577.244,463.856 576.822,463.979 576.4,464.099L577.033,463.917L577.665,463.73ZM582.666,462.085L582.387,462.185L582.304,462.214L582.098,462.287L582.015,462.316L581.736,462.414L581.735,462.414L581.455,462.511L581.373,462.539L581.165,462.61L581.082,462.638L580.802,462.733L580.52,462.827L580.438,462.855L580.229,462.924L580.146,462.951L579.864,463.044L579.582,463.135L579.5,463.161L579.289,463.229L579.207,463.255L578.924,463.344L578.923,463.344L578.295,463.539C578.505,463.475 578.714,463.41 578.923,463.344L578.924,463.344C579.018,463.315 579.113,463.285 579.207,463.255L579.238,463.245L579.289,463.229L579.394,463.195L579.5,463.161L579.551,463.145L579.582,463.135C579.77,463.074 579.958,463.013 580.146,462.951L580.177,462.941L580.229,462.924L580.333,462.89L580.438,462.855L580.49,462.838L580.52,462.827C580.708,462.765 580.895,462.702 581.082,462.638L581.113,462.628L581.165,462.61L581.269,462.575L581.373,462.539L581.424,462.521L581.455,462.511C581.549,462.479 581.642,462.446 581.735,462.414L581.735,462.414L581.736,462.414L581.968,462.333L582.015,462.316L582.046,462.305L582.098,462.287L582.201,462.251L582.304,462.214L582.356,462.196L582.387,462.185C582.48,462.152 582.573,462.119 582.666,462.085L582.666,462.085C582.872,462.011 583.078,461.937 583.284,461.861L582.666,462.085ZM592.379,458.033C590.237,459.052 588.065,460.002 585.863,460.876C588.065,460.002 590.237,459.052 592.379,458.033ZM600.023,454.038L599.966,454.071L599.911,454.102L599.615,454.269C599.246,454.478 598.875,454.685 598.504,454.889L598.49,454.896L598.2,455.056C598.297,455.003 598.394,454.95 598.49,454.896L598.496,454.894L598.504,454.889C598.875,454.685 599.246,454.478 599.615,454.269L599.673,454.237L599.911,454.102L599.978,454.064L600.023,454.038C600.199,453.938 600.375,453.837 600.551,453.736L600.023,454.038ZM605.561,450.695C604.265,451.522 602.957,452.325 601.635,453.104C602.957,452.325 604.265,451.522 605.561,450.695ZM611.183,446.909L610.93,447.088L610.801,447.179L610.42,447.446L610.282,447.543L610.03,447.718L609.845,447.846L609.637,447.99L609.445,448.122L609.239,448.263L609.05,448.392L608.824,448.546L608.658,448.658L608.267,448.922C608.398,448.834 608.528,448.746 608.658,448.658L608.696,448.632L608.824,448.546L608.988,448.435L609.05,448.392L609.125,448.341L609.239,448.263L609.347,448.189L609.445,448.122L609.552,448.048L609.637,447.99L609.706,447.942L609.845,447.846L609.979,447.754L610.03,447.718L610.064,447.694L610.282,447.543L610.404,447.457L610.42,447.446C610.547,447.357 610.674,447.268 610.801,447.179L610.828,447.16L610.93,447.088L611.134,446.944L611.183,446.909C611.347,446.793 611.511,446.676 611.674,446.56L611.183,446.909ZM613.712,445.076L613.284,445.391C613.284,445.391 613.017,445.587 613.017,445.587L612.793,445.751L612.749,445.783L612.749,445.783L612.212,446.173C612.392,446.043 612.571,445.913 612.749,445.783L612.749,445.783L612.793,445.751L613.017,445.587L613.017,445.587C613.106,445.522 613.195,445.457 613.284,445.391C613.284,445.391 613.712,445.076 613.712,445.076L613.712,445.076L613.712,445.076L614.138,444.759L613.712,445.076ZM623.363,437.385L623.28,437.455L623.106,437.604L623.007,437.688L622.849,437.823L622.743,437.913L622.591,438.041L622.481,438.134L622.333,438.259L622.22,438.354L622.075,438.476L621.96,438.572L621.816,438.693L621.7,438.79L621.556,438.91L621.439,439.007L621.296,439.126L621.179,439.223L621.035,439.342L620.918,439.439L620.774,439.557L620.656,439.654L620.512,439.773L620.395,439.869L620.249,439.988L620.132,440.083L619.986,440.203L619.87,440.297L619.721,440.418L619.607,440.51L619.455,440.633L619.343,440.723L619.186,440.849L619.08,440.935L618.913,441.068L618.815,441.147L618.628,441.297L618.551,441.358L618.285,441.57L618.018,441.78L617.939,441.843L617.752,441.99L617.651,442.07L617.486,442.2L617.375,442.286L617.218,442.409L617.103,442.499L616.951,442.617L616.832,442.709L616.683,442.825L616.562,442.919L616.414,443.033L616.291,443.128L616.145,443.24L616.021,443.335L615.875,443.447L615.75,443.542L615.605,443.653L615.479,443.749L615.364,443.837L614.988,444.122C615.113,444.027 615.239,443.932 615.364,443.837L615.41,443.802L615.479,443.749L615.542,443.701L615.605,443.653L615.674,443.601L615.75,443.542L615.819,443.49L615.875,443.447L615.937,443.4L616.021,443.335L616.095,443.279L616.145,443.24L616.2,443.198L616.291,443.128L616.37,443.067L616.414,443.033L616.462,442.996L616.562,442.919L616.645,442.854L616.683,442.825L616.724,442.794L616.832,442.709L616.92,442.641L616.951,442.617L616.985,442.591L617.103,442.499L617.194,442.428L617.218,442.409L617.246,442.387L617.375,442.286L617.467,442.214L617.486,442.2L617.506,442.184L617.651,442.07L617.74,442L617.752,441.99L617.766,441.979L617.939,441.843L618.013,441.785L618.018,441.78C618.196,441.64 618.373,441.499 618.551,441.358L618.556,441.354L618.628,441.297L618.801,441.158L618.815,441.147L618.827,441.137L618.913,441.068L619.059,440.952L619.08,440.935L619.097,440.921L619.186,440.849L619.316,440.745L619.343,440.723L619.367,440.704L619.455,440.633L619.573,440.538L619.607,440.51L619.637,440.486L619.721,440.418L619.829,440.33L619.87,440.297L619.906,440.268L619.986,440.203L620.085,440.122L620.132,440.083L620.174,440.049L620.249,439.988L620.34,439.913L620.395,439.869L620.442,439.83L620.512,439.773L620.595,439.705L620.656,439.654L620.71,439.61L620.774,439.557L620.849,439.495L620.918,439.439L620.976,439.39L621.035,439.342L621.103,439.285L621.179,439.223L621.243,439.17L621.296,439.126L621.357,439.075L621.439,439.007L621.509,438.949L621.556,438.91L621.61,438.865L621.7,438.79L621.774,438.728L621.816,438.693L621.863,438.654L621.96,438.572L622.039,438.506L622.075,438.476L622.115,438.442L622.22,438.354L622.304,438.284L622.333,438.259L622.367,438.231L622.481,438.134L622.568,438.061L622.591,438.041L622.618,438.018L622.743,437.913L622.831,437.838L622.849,437.823L622.869,437.806L623.007,437.688L623.094,437.614L623.106,437.604L623.119,437.593L623.28,437.455L623.357,437.39L623.363,437.385C623.448,437.312 623.533,437.239 623.619,437.166L623.363,437.385ZM625.908,435.167C625.674,435.375 625.44,435.581 625.205,435.788C625.44,435.581 625.674,435.375 625.908,435.167ZM552.687,388.991C552.58,388.994 552.474,388.996 552.368,388.996L552.475,388.995C552.545,388.994 552.616,388.993 552.687,388.991ZM552.905,388.984C552.869,388.986 552.833,388.987 552.797,388.988C552.869,388.986 552.941,388.983 553.013,388.98L552.905,388.984ZM551.3,388.966C551.23,388.962 551.16,388.957 551.09,388.952L551.196,388.96L551.3,388.966ZM553.553,388.946C553.481,388.952 553.409,388.957 553.337,388.962L553.445,388.954L553.553,388.946ZM549.864,388.813C550.223,388.868 550.586,388.911 550.95,388.941C550.586,388.911 550.223,388.868 549.864,388.813ZM555.546,388.68C555.106,388.761 554.663,388.828 554.218,388.88C554.663,388.828 555.106,388.761 555.546,388.68ZM548.798,388.616C549.02,388.665 549.243,388.709 549.468,388.748C549.278,388.715 549.089,388.678 548.901,388.638L548.798,388.616ZM555.858,388.621L555.916,388.609L555.858,388.621ZM556.51,388.481C556.423,388.501 556.336,388.521 556.25,388.54L556.38,388.511L556.51,388.481ZM547.733,388.345C547.783,388.359 547.834,388.374 547.885,388.388C547.834,388.374 547.783,388.359 547.733,388.345ZM547.427,388.253C547.487,388.272 547.547,388.29 547.607,388.308C547.547,388.29 547.487,388.272 547.427,388.253ZM557.546,388.217C557.444,388.246 557.343,388.274 557.241,388.3C557.299,388.285 557.358,388.269 557.417,388.253L557.546,388.217ZM547.183,388.176C547.226,388.19 547.27,388.204 547.313,388.217L547.282,388.208L547.183,388.176ZM544.95,387.275C545.128,387.361 545.308,387.444 545.488,387.524C545.339,387.458 545.192,387.39 545.045,387.32L544.95,387.275ZM560.723,387.104C560.535,387.183 560.346,387.26 560.157,387.335C560.304,387.276 560.451,387.217 560.598,387.156L560.723,387.104ZM543.85,386.697C543.925,386.739 543.999,386.781 544.074,386.822C543.999,386.781 543.925,386.739 543.85,386.697ZM561.596,386.722C561.679,386.684 561.762,386.646 561.844,386.607L561.72,386.665L561.596,386.722ZM543.02,386.197L543.104,386.251L543.02,386.197L542.986,386.175L543.02,386.197ZM542.666,385.967C542.71,385.996 542.755,386.026 542.799,386.055L542.754,386.025L542.666,385.967ZM542.102,385.576C542.165,385.621 542.228,385.666 542.291,385.71C542.228,385.666 542.165,385.621 542.102,385.576ZM541.294,384.965C541.539,385.161 541.789,385.351 542.043,385.534C541.818,385.371 541.596,385.204 541.377,385.032L541.294,384.965ZM565.806,384.472L565.803,384.474L565.803,384.474L565.806,384.472ZM565.96,384.378L565.955,384.381L565.955,384.381L565.96,384.378ZM566.114,384.283L566.106,384.288L566.106,384.288L566.114,384.283ZM566.268,384.188L566.257,384.195L566.257,384.195L566.268,384.188ZM566.422,384.092L566.408,384.101L566.408,384.101L566.422,384.092ZM566.575,383.996L566.558,384.006L566.558,384.006L566.575,383.996ZM566.728,383.899L566.709,383.911L566.709,383.911L566.728,383.899ZM566.881,383.801L566.859,383.815L566.859,383.815L566.881,383.801ZM567.033,383.703L567.008,383.719L567.009,383.719L567.033,383.703ZM567.185,383.605L567.158,383.622L567.158,383.622L567.185,383.605ZM539.518,383.45L539.601,383.526L539.518,383.45L539.372,383.316L539.518,383.45ZM567.417,383.453L567.307,383.525L567.307,383.525L567.417,383.453ZM567.72,383.253L567.605,383.329L567.605,383.329L567.72,383.253ZM568.022,383.051L567.902,383.132L567.902,383.132L568.022,383.051ZM568.323,382.848L568.198,382.933L568.198,382.932L568.323,382.848ZM538.498,382.483C538.646,382.63 538.796,382.774 538.947,382.918L538.759,382.738C538.671,382.653 538.584,382.569 538.498,382.483ZM568.622,382.643L568.493,382.732L568.493,382.731L568.622,382.643ZM568.92,382.437L568.787,382.529L568.787,382.529L568.92,382.437ZM569.218,382.229L569.08,382.325L569.08,382.325L569.218,382.229ZM537.111,381.056C537.465,381.437 537.824,381.812 538.19,382.178C537.763,381.75 537.344,381.311 536.933,380.863L537.111,381.056ZM569.514,382.02L569.372,382.12L569.373,382.12L569.514,382.02ZM569.809,381.809L569.663,381.914L569.664,381.914L569.809,381.809ZM570.104,381.597L569.954,381.706L569.954,381.706L570.104,381.597ZM570.398,381.384L570.243,381.497L570.243,381.497L570.398,381.384ZM570.693,381.169L570.531,381.288L570.531,381.288L570.693,381.169ZM570.989,380.951L570.818,381.077L570.818,381.077L570.989,380.951ZM571.295,380.724L571.105,380.866L571.105,380.866L571.295,380.724ZM572.413,379.881C572.168,380.069 571.921,380.256 571.674,380.441L571.39,380.654C571.485,380.583 571.579,380.512 571.674,380.441C571.921,380.256 572.168,380.069 572.413,379.881ZM534.984,378.606C535.475,379.208 535.977,379.797 536.49,380.373C535.977,379.797 535.475,379.208 534.984,378.606ZM572.969,379.453L572.915,379.494L572.969,379.453L573.089,379.359L572.969,379.453ZM534.685,378.237C534.58,378.106 534.475,377.974 534.37,377.842L534.535,378.05L534.685,378.237ZM533.397,376.579C533.553,376.787 533.711,376.995 533.87,377.201C533.711,376.995 533.553,376.787 533.397,376.579ZM531.822,374.413C531.876,374.489 531.929,374.565 531.983,374.641L531.829,374.423L531.822,374.413ZM531.068,373.327C531.196,373.514 531.325,373.701 531.455,373.888C531.325,373.702 531.196,373.514 531.068,373.327ZM584.145,369.418C583.073,370.511 581.983,371.584 580.875,372.635L581.112,372.409C582.139,371.431 583.149,370.433 584.145,369.418ZM529.834,371.492C529.936,371.647 530.039,371.802 530.142,371.956C529.958,371.68 529.775,371.403 529.592,371.125L529.834,371.492ZM528.639,369.648L528.641,369.652L528.639,369.648ZM587.537,365.838C586.469,367.003 585.386,368.15 584.284,369.276C585.309,368.228 586.319,367.162 587.314,366.08L587.537,365.838ZM589.738,363.385L589.542,363.607L589.738,363.385ZM590.821,362.141C590.678,362.307 590.534,362.474 590.389,362.64L590.605,362.39C590.677,362.307 590.749,362.224 590.821,362.141ZM595.261,356.804C595.123,356.976 594.984,357.148 594.846,357.319L595.261,356.804C595.4,356.633 595.538,356.461 595.675,356.288L595.261,356.804ZM598.536,352.644C598.227,353.045 597.916,353.446 597.604,353.846C598.051,353.272 598.497,352.696 598.94,352.119L598.536,352.644ZM524.482,282.762L524.056,283.963L524.38,283.052L524.482,282.762ZM525.174,280.797L524.772,281.941L525.088,281.045L525.174,280.797ZM525.864,278.828L525.482,279.918L525.791,279.037L525.864,278.828ZM526.55,276.854L526.189,277.894L526.49,277.028L526.55,276.854ZM527.234,274.877L526.891,275.868L527.185,275.018L527.234,274.877ZM527.914,272.897L527.591,273.837L527.877,273.007L527.914,272.897ZM528.592,270.915L528.29,271.798L528.564,270.995L528.592,270.915ZM529.266,268.93L528.992,269.737L529.249,268.983L529.266,268.93ZM529.938,266.944L529.714,267.606L529.929,266.97L529.938,266.944ZM548.492,388.545C548.56,388.562 548.628,388.578 548.696,388.593L548.594,388.57L548.492,388.545ZM557.873,388.124C557.807,388.143 557.741,388.162 557.675,388.181L557.804,388.144L557.873,388.124ZM546.984,388.109C546.786,388.042 546.589,387.971 546.393,387.897C546.622,387.984 546.852,388.066 547.083,388.143L546.984,388.109ZM546.198,387.821C546.16,387.807 546.122,387.791 546.085,387.776C546.155,387.804 546.225,387.832 546.296,387.859L546.198,387.821ZM561.098,386.943C561.015,386.98 560.932,387.015 560.848,387.051L560.973,386.997C561.057,386.962 561.14,386.925 561.223,386.889L561.098,386.943ZM540.891,384.64C540.668,384.457 540.447,384.27 540.228,384.081C540.512,384.327 540.8,384.568 541.092,384.804L540.891,384.64ZM586.549,329.973L586.549,329.973L586.896,329.058L586.549,329.973ZM587.981,365.351C588.128,365.189 588.276,365.026 588.423,364.863L588.643,364.618C588.349,364.945 588.055,365.271 587.759,365.595L587.981,365.351ZM591.252,361.64C591.323,361.556 591.395,361.473 591.466,361.389C591.323,361.556 591.18,361.723 591.037,361.89L591.252,361.64ZM591.894,360.885C592.25,360.466 592.604,360.045 592.956,359.622C592.533,360.129 592.108,360.635 591.681,361.137L591.894,360.885ZM559.604,391.334L558.435,393.56L557.104,396.04L556.284,397.559L554.035,401.615C554.035,401.615 551.337,406.299 551.337,406.299L549.457,409.471L549.402,409.56L547.316,412.948L546.831,413.721L544.601,417.199L543.167,412.46C539.22,399.641 534.921,386.868 529.957,374.454C528.858,371.707 527.727,368.978 526.56,366.27L526.273,365.603C523.292,358.714 520.074,351.967 516.567,345.412C515.024,342.527 513.423,339.675 511.739,336.883L509.417,331.798L507.253,327.029L506.552,328.618C512.866,314.241 518.515,299.538 523.787,284.722C518.711,298.987 513.284,313.148 507.248,327.017C496.693,303.724 486.02,280.216 469.846,261.207C462.579,252.665 454.102,245.168 444.648,239.589C458.986,232.932 475.03,230.173 490.276,231.466C506.592,232.85 522.216,239.589 535.63,249.669C537.648,251.179 539.615,252.768 541.526,254.426C560.196,270.621 574.062,292.443 585.31,315.119C586.618,317.756 587.893,320.409 589.128,323.086L589.321,323.499C593.365,332.184 597.087,341.034 600.542,350.013C600.317,350.313 600.09,350.611 599.863,350.91C600.09,350.611 600.317,350.313 600.542,350.013C608.4,370.413 614.887,391.471 620.678,412.741C622.67,420.059 624.571,427.394 626.383,434.744L626.74,436.191C634.2,466.599 640.205,497.318 645.163,528.41C646.601,537.425 647.974,546.447 649.111,555.514L649.12,555.584C649.35,558.18 649.477,558.83 649.432,561.442C649.197,575.054 641.882,588.304 630.34,595.076C619.872,601.217 606.602,601.579 595.754,595.776C585.897,590.503 578.481,580.375 576.19,568.756C575.946,567.514 575.777,566.252 575.617,565.006C573.831,551.237 571.608,537.503 569.203,523.82C565.874,504.874 562.138,486 557.81,467.283L557.445,465.704C553.655,449.397 549.412,433.211 544.601,417.199C547.923,412.129 551.056,406.902 554.035,401.615C556.568,397.12 559.004,392.565 561.35,387.954C561.039,388.564 560.726,389.173 560.412,389.781L559.604,391.334Z" style="fill:rgb(255,102,0);stroke:rgb(255,102,0);stroke-width:0.17px;"/>
        </g>
        <g transform="matrix(4.78404,0,0,4.51066,451.919,150.289)">
            <path d="M365.023,351.05C364.042,353.218 363.051,355.382 362.028,357.531C359.008,350.448 355.905,343.416 352.524,336.54C349.148,329.673 345.516,322.897 340.82,317.023C338.138,313.67 335.055,310.415 331.145,309.187C327.566,308.063 323.672,308.406 320.31,310.039C315.235,312.506 311.034,316.708 307.24,321.121C301.811,327.438 297.215,334.489 293.108,341.899C293.458,341.142 293.806,340.385 294.154,339.626C293.806,340.385 293.458,341.142 293.108,341.899C291.845,344.171 290.855,346.6 289.683,348.923C280.1,333.957 271.812,317.827 264.528,301.475C259.847,290.964 255.484,280.309 251.437,269.518C253.49,267.065 255.622,264.683 257.826,262.376C273.11,246.38 292.372,234.341 313.589,231.015C330.83,228.313 348.751,231.086 364.525,238.931L365.08,239.21C367.853,240.613 370.556,242.173 373.176,243.889C384.287,251.164 393.781,261.013 401.71,272.1C403.103,274.048 404.449,276.029 405.74,278.045L405.981,278.414L407.881,281.434L408.285,282.088L409.988,284.938L410.506,285.824L412.048,288.536L412.65,289.617L414.06,292.212L414.723,293.46L416.021,295.954L416.732,297.351L417.934,299.752L418.684,301.283L419.801,303.598L420.584,305.254L421.627,307.484L422.441,309.259L423.416,311.404L424.262,313.297L425.173,315.351L426.056,317.37L426.843,319.178L429.308,324.949L430.328,327.34L433.648,335.218C434.733,337.789 435.813,340.365 436.909,342.93L437.694,344.787L438.149,345.836L438.499,346.656L438.831,347.408L439.759,349.548L440.644,351.52L441.001,352.329L441.353,353.098L441.88,354.273L442.225,355.004C442.68,355.987 443.14,356.963 443.606,357.934L441.401,362.966C435.499,376.513 429.807,390.193 422.732,403.576L423.062,402.948C429.985,389.766 435.591,376.302 441.404,362.971C451.664,385.581 462.068,408.342 477.055,427.504C485.936,438.86 496.553,448.779 508.671,455.81C501.575,460.538 493.876,464.124 485.702,466.013C476.716,468.089 467.279,467.951 458.061,466.507C441.933,463.981 426.516,456.5 413.862,445.357C409.872,441.843 406.161,438.006 402.701,433.906L402.28,433.407C393.451,422.906 386.208,410.762 379.938,398.177C374.186,386.633 369.263,374.662 364.24,362.761L363.294,360.523C362.872,359.528 362.449,358.533 362.025,357.539L362.028,357.531L362.283,356.994C363.386,354.663 364.454,352.315 365.512,349.965L365.023,351.05ZM406.226,429.567C405.412,430.614 404.583,431.648 403.74,432.667C404.583,431.648 405.411,430.614 406.226,429.567ZM407.969,427.278C408.082,427.127 408.194,426.975 408.307,426.823L407.969,427.278ZM408.977,425.909L408.934,425.968C409.06,425.795 409.185,425.623 409.31,425.45L408.977,425.909ZM415.878,415.593C414.732,417.45 413.553,419.285 412.34,421.092C413.553,419.285 414.732,417.45 415.878,415.593ZM418.636,410.98C418.269,411.614 417.898,412.246 417.524,412.876C417.898,412.246 418.269,411.614 418.636,410.98ZM419.609,409.282C419.388,409.672 419.167,410.06 418.944,410.448C419.167,410.06 419.389,409.672 419.609,409.282ZM421.106,406.597L420.83,407.098L421.106,406.597ZM371.155,350.997L370.626,352.134L371.155,350.997L371.783,349.653L371.155,350.997ZM368.31,343.682C368.564,343.105 368.818,342.528 369.072,341.95L368.564,343.107L368.31,343.682ZM379.777,333.395C378.127,336.525 376.557,339.704 375.015,342.879C376.557,339.704 378.127,336.525 379.777,333.395ZM383.092,327.404C382.109,329.088 381.161,330.797 380.239,332.524C381.161,330.797 382.109,329.088 383.092,327.404ZM299.327,328.186L298.919,329.091L299.327,328.186ZM384.591,324.906C384.251,325.456 383.916,326.01 383.586,326.567L383.834,326.15C384.001,325.872 384.168,325.595 384.337,325.319L384.591,324.906ZM385.103,324.083L384.846,324.494C384.977,324.283 385.109,324.073 385.241,323.864L385.103,324.083ZM418.532,318.536C419.389,319.771 420.212,321.033 421.015,322.305C420.212,321.034 419.389,319.771 418.532,318.536ZM387.497,320.449C387.14,320.966 386.787,321.487 386.439,322.013C386.698,321.622 386.96,321.233 387.224,320.847L387.497,320.449ZM378.555,320.297L378.684,320.008L379.199,318.862L378.684,320.008L378.555,320.297ZM388.051,319.658L387.773,320.053C387.944,319.808 388.117,319.564 388.291,319.322L388.051,319.658ZM381.282,314.291C380.932,315.051 380.583,315.811 380.236,316.573L379.716,317.716C380.235,316.572 380.756,315.43 381.282,314.291ZM417.43,316.99C417.575,317.187 417.719,317.386 417.861,317.586C417.626,317.258 417.388,316.932 417.148,316.609L417.43,316.99ZM415.697,314.745C415.994,315.11 416.287,315.48 416.576,315.855L416.286,315.482C416.189,315.358 416.091,315.235 415.993,315.112L415.697,314.745ZM392.672,313.742C392.363,314.094 392.059,314.451 391.759,314.812C392.059,314.451 392.363,314.094 392.672,313.742ZM413.769,312.527C414.02,312.797 414.268,313.07 414.512,313.347C414.268,313.07 414.02,312.797 413.769,312.527ZM394.359,311.94C393.913,312.383 393.48,312.841 393.056,313.311C393.559,312.754 394.075,312.213 394.608,311.696L394.359,311.94ZM412.215,310.951C412.703,311.417 413.179,311.898 413.643,312.392C413.233,311.955 412.813,311.528 412.383,311.113L412.215,310.951ZM395.705,310.688C395.604,310.775 395.504,310.864 395.404,310.953C395.503,310.864 395.604,310.775 395.705,310.688ZM308.93,307.409C308.377,308.559 307.829,309.712 307.284,310.867C307.633,310.126 307.985,309.386 308.337,308.646L308.93,307.409ZM384.493,307.494C383.968,308.577 383.449,309.663 382.935,310.752C383.271,310.041 383.609,309.33 383.949,308.621L384.493,307.494ZM411.714,310.483C411.768,310.533 411.822,310.582 411.875,310.632L411.714,310.483C411.661,310.434 411.607,310.385 411.552,310.336L411.714,310.483ZM409.621,308.777C410.174,309.161 410.705,309.589 411.219,310.039C410.705,309.59 410.174,309.161 409.621,308.777ZM397.249,309.465C397.052,309.606 396.858,309.751 396.665,309.9C396.903,309.716 397.144,309.538 397.389,309.365L397.249,309.465ZM398.392,308.707L398.246,308.797C398.305,308.761 398.364,308.724 398.423,308.689L398.392,308.707ZM399.001,308.356C398.917,308.401 398.834,308.447 398.752,308.494C398.835,308.447 398.918,308.401 399.001,308.356ZM399.107,308.3L399.167,308.269L399.107,308.3ZM408.123,307.888L408.217,307.935L408.123,307.888L408.067,307.862L408.123,307.888ZM407.835,307.755L407.88,307.775C407.833,307.754 407.786,307.733 407.738,307.712L407.835,307.755ZM400.982,307.531C400.933,307.546 400.883,307.562 400.834,307.578L400.869,307.567L400.982,307.531ZM407.149,307.486C407.215,307.508 407.281,307.532 407.347,307.556L407.248,307.52C407.182,307.497 407.116,307.474 407.049,307.453L407.149,307.486ZM406.027,307.201C406.232,307.235 406.435,307.279 406.635,307.331C406.469,307.288 406.301,307.25 406.131,307.219L406.027,307.201ZM405.02,307.08C405.278,307.099 405.536,307.127 405.792,307.164C405.536,307.127 405.278,307.099 405.02,307.08ZM404.611,307.057L404.639,307.058L404.611,307.057L404.579,307.056L404.611,307.057ZM387.837,300.784C387.647,301.154 387.458,301.524 387.269,301.895L386.987,302.452C387.363,301.709 387.741,300.969 388.123,300.23L387.837,300.784ZM390.384,295.954C389.716,297.188 389.059,298.429 388.41,299.676L388.699,299.123C389.253,298.062 389.815,297.006 390.384,295.954ZM313.335,298.515C313.492,298.207 313.65,297.9 313.808,297.593L313.495,298.201L313.335,298.515ZM314.755,295.774C314.557,296.15 314.361,296.527 314.165,296.904L314.438,296.38L314.755,295.774ZM316.035,293.362C315.829,293.745 315.624,294.129 315.42,294.513L315.713,293.963L316.035,293.362ZM393.184,290.928C393.063,291.14 392.942,291.351 392.821,291.562C393.045,291.171 393.269,290.78 393.495,290.389L393.184,290.928ZM317.337,290.965L317.181,291.249L317.337,290.965L317.547,290.585L317.337,290.965ZM318.663,288.585L318.471,288.927L318.663,288.585L318.821,288.307L318.663,288.585ZM320.528,285.347C320.283,285.764 320.04,286.181 319.798,286.6C320.04,286.181 320.283,285.764 320.528,285.347ZM323.517,280.413C323.125,281.039 322.737,281.668 322.352,282.299C322.619,281.861 322.888,281.424 323.158,280.988L323.517,280.413ZM400.064,279.829C399.883,280.099 399.702,280.369 399.523,280.64C399.817,280.197 400.113,279.754 400.412,279.313L400.064,279.829ZM401.114,278.285L400.831,278.698L401.114,278.285L401.468,277.772L401.114,278.285ZM342.889,255.53C343.082,255.335 343.275,255.141 343.47,254.948L342.99,255.427L342.889,255.53ZM349.87,249.064L349.593,249.3L349.87,249.064L350.324,248.684L349.87,249.064ZM352.351,247.042L351.85,247.439L352.351,247.042L352.854,246.648L352.351,247.042ZM353.361,246.258L353.071,246.481L353.361,246.258L353.869,245.871L353.361,246.258ZM356.972,243.627C356.616,243.874 356.262,244.122 355.91,244.374C356.262,244.122 356.616,243.874 356.972,243.627ZM359.621,241.862C359.102,242.195 358.585,242.534 358.072,242.878C358.409,242.652 358.747,242.428 359.087,242.207L359.621,241.862ZM362.872,239.872C362.689,239.979 362.507,240.086 362.325,240.194L362.872,239.872C363.054,239.765 363.237,239.66 363.421,239.554L362.872,239.872ZM300.885,324.739L300.364,325.888L300.885,324.739ZM303.117,319.846C304.196,317.49 305.282,315.136 306.381,312.788C305.088,315.55 303.813,318.322 302.546,321.093L303.117,319.846ZM316.683,292.161C316.574,292.361 316.466,292.561 316.358,292.761L316.683,292.161ZM324.24,279.268C325.088,277.935 325.952,276.615 326.834,275.308L327.213,274.749C326.073,276.424 324.962,278.122 323.877,279.84L324.24,279.268ZM327.978,273.636C330.926,269.381 334.073,265.279 337.467,261.374L337.911,260.865C334.198,265.092 330.781,269.553 327.594,274.191L327.978,273.636ZM344.939,253.513C344.772,253.673 344.605,253.834 344.439,253.995L344.928,253.523L344.939,253.513Z" style="fill:rgb(0,102,255);stroke:rgb(0,102,255);stroke-width:0.17px;"/>
        </g>
        <g transform="matrix(1,0,0,1,726.378,595.999)">
            <path d="M2148.91,1036.57L2152.26,1029.41L2162.61,1050.92L2173.72,1073.86C2165.74,1061.4 2157.38,1049.21 2148.52,1037.42L2148.91,1036.57Z" style="fill:rgb(51,204,0);"/>
        </g>
        <g transform="matrix(4.78404,0,0,4.51066,451.919,150.289)">
            <path d="M403.587,274.806L401.71,272.1C393.781,261.013 384.287,251.164 373.176,243.889C370.382,242.059 367.492,240.406 364.525,238.931C372.057,234.749 380.135,231.706 388.495,230.073C404.479,226.95 421.317,228.632 436.316,235.276C439.172,236.541 441.954,237.984 444.648,239.589C454.102,245.168 462.579,252.665 469.846,261.207C486.02,280.216 496.693,303.724 507.248,327.017L506.552,328.618L506.471,328.805C508.325,331.419 510.072,334.121 511.739,336.883C514.97,343.994 518.251,351.09 521.874,357.934C523.371,360.761 524.926,363.545 526.56,366.27C533.002,381.218 538.347,396.804 543.167,412.46L544.6,417.197C541.08,422.573 537.348,427.774 533.362,432.686C537.348,427.774 541.08,422.574 544.601,417.199C549.567,433.727 553.928,450.441 557.816,467.282C543.914,468.166 529.836,465.775 517.034,460.091C514.173,458.821 511.386,457.391 508.671,455.81C496.553,448.779 485.936,438.86 477.055,427.504C462.067,408.341 451.663,385.579 441.401,362.966L441.401,362.965C441.219,362.524 430.986,337.673 423.993,320.599C417.502,304.751 414.162,297.649 410.823,290.211C408.167,284.294 406.931,280.726 404.32,275.888C404.077,275.526 403.833,275.166 403.587,274.806ZM512.259,453.304C511.875,453.587 511.488,453.867 511.099,454.143C511.587,453.796 512.072,453.444 512.553,453.086L512.259,453.304ZM514.013,451.981C513.871,452.09 513.729,452.2 513.586,452.308L513.722,452.204L514.013,451.981ZM518.825,448.007C518.919,447.925 519.012,447.843 519.106,447.76L518.829,448.004L518.825,448.007ZM521.371,445.694C521.522,445.552 521.673,445.41 521.824,445.267L521.555,445.521L521.371,445.694ZM524.09,443.055C523.792,443.354 523.492,443.651 523.191,443.947C523.492,443.652 523.792,443.354 524.09,443.055ZM526.842,440.196L526.508,440.554C526.295,440.781 526.081,441.007 525.866,441.232C526.081,441.007 526.295,440.781 526.508,440.554C526.619,440.435 526.73,440.316 526.842,440.196ZM527.175,439.837L526.951,440.079L527.129,439.887L527.175,439.837ZM527.508,439.475L527.304,439.698L527.438,439.553L527.508,439.475ZM527.842,439.111L527.643,439.329L527.746,439.216L527.842,439.111ZM528.179,438.74L527.976,438.963L528.053,438.879L528.179,438.74ZM528.524,438.358L528.307,438.598L528.359,438.54L528.524,438.358ZM528.916,437.919L528.636,438.233L528.665,438.201L528.916,437.919ZM529.29,437.497L528.963,437.867C529.072,437.744 529.181,437.621 529.29,437.497ZM529.616,437.127L529.378,437.398L529.575,437.174L529.616,437.127ZM529.942,436.755L529.731,436.996L529.876,436.83L529.942,436.755ZM530.269,436.378L530.064,436.614L530.177,436.485L530.269,436.378ZM530.599,435.995L530.39,436.238L530.476,436.138L530.599,435.995ZM530.939,435.598L530.713,435.862L530.775,435.79L530.939,435.598ZM531.323,435.147L531.034,435.487L531.073,435.441L531.323,435.147ZM531.684,434.719L531.353,435.112C531.463,434.981 531.574,434.85 531.684,434.719ZM532.004,434.337L531.699,434.7L531.961,434.388L532.004,434.337ZM532.325,433.951L532.075,434.251L532.255,434.035L532.325,433.951ZM532.648,433.559L532.408,433.85L532.548,433.681L532.648,433.559ZM532.978,433.157L532.731,433.459L532.84,433.326L532.978,433.157ZM533.323,432.734L533.048,433.072L533.131,432.97L533.323,432.734ZM544.722,417.01L546.831,413.721C546.137,414.824 545.433,415.921 544.722,417.01L544.601,417.199L544.6,417.197L544.722,417.01ZM469.912,388.951C469.907,388.952 469.902,388.952 469.896,388.953L469.88,388.953C469.885,388.953 469.891,388.953 469.896,388.953L469.912,388.951ZM468.987,388.843C469.247,388.885 469.507,388.92 469.769,388.947C469.469,388.915 469.17,388.875 468.872,388.824L468.987,388.843ZM469.986,388.932C469.979,388.935 469.972,388.938 469.965,388.94C469.972,388.938 469.979,388.935 469.986,388.932ZM470.071,388.857L470.067,388.861L470.071,388.857L470.082,388.843L470.071,388.857ZM468.527,388.762L468.582,388.772L468.527,388.762L468.445,388.745L468.527,388.762ZM467.859,388.615C467.998,388.649 468.137,388.681 468.277,388.711C468.137,388.681 467.998,388.649 467.859,388.615ZM466.607,388.248M464.559,387.364C465.175,387.688 465.812,387.967 466.464,388.198C465.848,387.98 465.247,387.719 464.664,387.418L464.559,387.364ZM471.623,387.577L471.535,387.653L471.623,387.577L471.819,387.404L471.623,387.577ZM463.951,387.025C464.05,387.083 464.149,387.14 464.248,387.195C464.148,387.14 464.049,387.083 463.951,387.025ZM463.637,386.835C463.725,386.889 463.814,386.943 463.903,386.996C463.848,386.963 463.793,386.93 463.738,386.897L463.637,386.835ZM473.248,386.071C473.074,386.242 472.9,386.41 472.723,386.577C472.967,386.347 473.207,386.113 473.445,385.875L473.248,386.071ZM461.848,385.545C462.09,385.739 462.335,385.928 462.584,386.112C462.335,385.928 462.09,385.739 461.848,385.545ZM474.03,385.28L473.867,385.447L474.03,385.28L474.193,385.108L474.03,385.28ZM461.443,385.214C461.528,385.286 461.614,385.356 461.7,385.427C461.614,385.356 461.528,385.286 461.443,385.214ZM474.652,384.618C474.762,384.499 474.872,384.379 474.981,384.258L474.793,384.465L474.652,384.618ZM460.182,384.095C460.089,384.007 459.997,383.919 459.905,383.831L460.105,384.022L460.182,384.095ZM476.383,382.639C476.211,382.846 476.038,383.051 475.863,383.255C476.038,383.051 476.211,382.846 476.383,382.639ZM458.46,382.341C458.669,382.57 458.88,382.795 459.094,383.018C458.88,382.795 458.669,382.57 458.46,382.341ZM480.558,377.126C479.868,378.104 479.167,379.073 478.448,380.025C479.167,379.073 479.868,378.104 480.558,377.126ZM481.394,375.934C481.55,375.709 481.707,375.484 481.863,375.259L481.538,375.726L481.394,375.934ZM453.224,375.394C453.337,375.568 453.451,375.741 453.565,375.914C453.398,375.661 453.232,375.407 453.068,375.152L453.224,375.394ZM482.714,374.015L482.601,374.182L482.714,374.015L482.766,373.938L482.714,374.015ZM451.152,372.078C451.231,372.21 451.311,372.342 451.392,372.473L451.569,372.763L451.392,372.473L451.152,372.078ZM450.879,371.625C450.955,371.752 451.031,371.879 451.108,372.006L450.879,371.625ZM450.598,371.155C450.677,371.288 450.756,371.42 450.835,371.552L450.598,371.155ZM484.653,371.08L484.578,371.197L484.653,371.08L484.912,370.679L484.653,371.08ZM450.445,370.896L450.597,371.152L450.359,370.75L450.445,370.896ZM450.091,370.293C450.168,370.425 450.245,370.557 450.323,370.689L450.091,370.293ZM449.567,369.387C449.73,369.671 449.894,369.955 450.059,370.238L449.819,369.826L449.567,369.387ZM449.117,368.597C449.264,368.857 449.412,369.117 449.561,369.377L449.308,368.934L449.117,368.597ZM486.001,368.957L485.924,369.08L486.001,368.957L486.145,368.724L486.001,368.957ZM448.913,368.235L449.005,368.398L448.831,368.088L448.913,368.235ZM444.165,359.098L444.162,359.102C445.618,362.103 447.14,365.06 448.755,367.952C447.141,365.059 445.619,362.102 444.165,359.098ZM488.827,364.273C488.33,365.124 487.827,365.97 487.318,366.813C487.828,365.97 488.33,365.124 488.827,364.273ZM489.368,363.342L489.162,363.698L489.368,363.342ZM491.353,359.828C491.022,360.426 490.688,361.023 490.352,361.618C490.771,360.877 491.186,360.132 491.597,359.386L491.353,359.828ZM494.91,353.165C494.383,354.184 493.851,355.2 493.312,356.213C493.851,355.2 494.383,354.184 494.91,353.165ZM496.073,350.892L495.844,351.342L496.073,350.892L496.144,350.753L496.073,350.892ZM449.405,345.275C449.071,345.972 448.74,346.67 448.412,347.368C448.74,346.67 449.071,345.972 449.405,345.275ZM498.258,346.512L498.166,346.7L498.167,346.697L498.258,346.512ZM498.556,345.905L498.448,346.126L498.45,346.121L498.556,345.905ZM498.841,345.322L498.729,345.552L498.732,345.544L498.841,345.322ZM499.12,344.748L499.009,344.977L499.014,344.966L499.12,344.748ZM450.302,343.414C450.061,343.909 449.822,344.404 449.584,344.9C449.897,344.249 450.211,343.599 450.528,342.949L450.302,343.414ZM499.395,344.179L499.288,344.401L499.294,344.388L499.395,344.179ZM499.668,343.614L499.567,343.824L499.574,343.81L499.668,343.614ZM499.939,343.051L499.845,343.246L499.853,343.231L499.939,343.051ZM500.207,342.491L500.123,342.667L500.13,342.652L500.207,342.491ZM500.473,341.934L500.4,342.087L500.407,342.072L500.473,341.934ZM500.738,341.378L500.677,341.506L500.684,341.492L500.738,341.378ZM452.076,339.823C451.843,340.287 451.61,340.753 451.379,341.219C451.61,340.753 451.843,340.287 452.076,339.823ZM501.001,340.823L500.953,340.924L500.959,340.912L501.001,340.823ZM501.262,340.271L501.229,340.34L501.233,340.331L501.262,340.271ZM501.521,339.719L501.505,339.754L501.507,339.749L501.521,339.719ZM453.282,337.462C453.15,337.716 453.018,337.971 452.887,338.226C453.077,337.857 453.267,337.489 453.459,337.122L453.282,337.462ZM455.268,333.748C455.145,333.971 455.022,334.195 454.9,334.419L455.084,334.083L455.268,333.748ZM455.639,333.08C455.568,333.207 455.497,333.334 455.427,333.462C455.497,333.334 455.568,333.207 455.639,333.08ZM456.584,331.421C456.382,331.769 456.182,332.118 455.984,332.468C456.245,332.007 456.509,331.548 456.775,331.091L456.584,331.421ZM502.542,323.569C503.907,325.266 505.216,327.012 506.471,328.804C505.167,326.943 503.807,325.131 502.384,323.374L502.542,323.569ZM458.749,327.836C458.632,328.021 458.516,328.206 458.4,328.392C458.516,328.206 458.632,328.021 458.749,327.836ZM460.41,325.294C460.034,325.849 459.664,326.409 459.3,326.972C459.664,326.409 460.034,325.849 460.41,325.294ZM461.49,323.738C461.158,324.205 460.831,324.675 460.509,325.15C460.902,324.571 461.302,323.997 461.71,323.429L461.49,323.738ZM501.908,322.79L501.982,322.88L501.908,322.79L501.878,322.754L501.908,322.79ZM500.235,320.81C500.637,321.272 501.033,321.739 501.425,322.208C501.089,321.806 500.749,321.405 500.406,321.007L500.235,320.81ZM463.603,320.902L463.521,321.007L463.603,320.902L463.733,320.736L463.603,320.902ZM465.805,318.256C465.882,318.17 465.959,318.084 466.036,317.999L465.895,318.155L465.805,318.256ZM496.905,317.232C497.197,317.521 497.485,317.814 497.771,318.11L497.59,317.923C497.363,317.69 497.135,317.46 496.905,317.232ZM466.748,317.232L466.825,317.152L466.748,317.232ZM467.923,316.053L467.862,316.113L467.923,316.053L467.947,316.03L467.923,316.053ZM495.449,315.851C495.354,315.764 495.258,315.678 495.163,315.593L495.354,315.765L495.449,315.851ZM468.704,315.33L468.837,315.212L468.992,315.076L468.837,315.212L468.704,315.33ZM494.582,315.085L494.76,315.238L494.582,315.085L494.413,314.941L494.582,315.085ZM493.136,313.906C493.449,314.148 493.759,314.396 494.065,314.65C493.759,314.396 493.449,314.148 493.136,313.906ZM470.403,313.923C470.254,314.037 470.106,314.152 469.96,314.269C470.106,314.152 470.254,314.037 470.403,313.923ZM471.759,312.959C471.419,313.183 471.085,313.417 470.756,313.659C471.03,313.457 471.307,313.262 471.589,313.072L471.759,312.959ZM492.179,313.193L492.279,313.265C492.177,313.192 492.075,313.119 491.972,313.046L492.179,313.193ZM491.47,312.701C491.568,312.767 491.666,312.834 491.764,312.902L491.556,312.759L491.47,312.701ZM473.598,311.885C473.147,312.113 472.706,312.36 472.275,312.628C472.159,312.7 472.044,312.773 471.93,312.847L472.102,312.737C472.159,312.7 472.217,312.664 472.275,312.628C472.706,312.36 473.147,312.113 473.598,311.885ZM479.1,310.08C477.265,310.409 475.476,310.962 473.805,311.781L473.962,311.705C475.64,310.903 477.434,310.365 479.272,310.05L479.1,310.08ZM489.034,311.236C489.16,311.302 489.286,311.369 489.411,311.438L489.58,311.533L489.411,311.438C489.317,311.386 489.223,311.336 489.128,311.286L489.034,311.236ZM487.507,310.547C487.993,310.734 488.471,310.948 488.939,311.187L488.843,311.139C488.406,310.919 487.96,310.721 487.507,310.547ZM485.814,310.021C486.262,310.127 486.705,310.258 487.141,310.412C486.705,310.258 486.262,310.127 485.814,310.021ZM485.458,309.942C485.54,309.959 485.623,309.977 485.705,309.996C485.657,309.985 485.609,309.974 485.561,309.964L485.458,309.942ZM484.73,309.816C484.811,309.828 484.891,309.84 484.972,309.853C484.856,309.834 484.741,309.817 484.625,309.802L484.73,309.816ZM484.31,309.765L484.315,309.766L484.31,309.765L484.289,309.763L484.31,309.765ZM482.402,309.724C482.227,309.731 482.052,309.74 481.877,309.751L482.052,309.74C482.169,309.734 482.285,309.728 482.402,309.724ZM483.618,309.715C483.706,309.719 483.794,309.723 483.882,309.729C483.794,309.723 483.706,309.718 483.618,309.715ZM482.751,309.712C482.635,309.715 482.518,309.719 482.402,309.724L482.576,309.717L482.751,309.712ZM483.248,309.705L483.334,309.707L483.248,309.705L483.181,309.705L483.248,309.705ZM483.141,309.705C483.141,309.705 483.141,309.705 483.141,309.705ZM410.861,265.694C409.779,266.933 408.719,268.196 407.681,269.48C408.809,268.084 409.964,266.713 411.144,265.37L410.861,265.694ZM413.905,262.332C413.459,262.807 413.016,263.286 412.577,263.768L412.866,263.451C413.211,263.076 413.557,262.702 413.905,262.332ZM415.517,260.648C415.351,260.818 415.186,260.988 415.021,261.16L415.219,260.955L415.517,260.648ZM423.3,253.381C420.711,255.576 418.216,257.902 415.817,260.342L416.117,260.038C418.525,257.607 421.028,255.291 423.624,253.108L423.3,253.381ZM424.93,252.027L424.659,252.249C424.858,252.086 425.059,251.923 425.259,251.761L424.93,252.027ZM426.585,250.708C426.369,250.877 426.153,251.047 425.938,251.218C426.263,250.959 426.59,250.703 426.919,250.449L426.585,250.708ZM429.624,248.427C429.288,248.669 428.953,248.914 428.62,249.161C428.953,248.914 429.288,248.669 429.624,248.427ZM433.798,245.577L433.656,245.669L433.798,245.577L434.131,245.364L433.798,245.577ZM435.22,244.679L435.134,244.732C435.282,244.64 435.429,244.549 435.577,244.458L435.22,244.679ZM440.534,241.628C439.479,242.186 438.435,242.767 437.403,243.367C438.435,242.766 439.479,242.186 440.534,241.628ZM441.806,240.967C441.469,241.138 441.134,241.311 440.8,241.487C441.01,241.377 441.221,241.267 441.432,241.158L441.806,240.967ZM444.069,239.856C443.436,240.155 442.806,240.463 442.181,240.777L442.557,240.589C443.184,240.278 443.815,239.974 444.45,239.677L444.069,239.856ZM517.717,448.968C516.691,449.845 515.649,450.699 514.591,451.53L514.879,451.303C515.934,450.468 516.973,449.609 517.996,448.729L517.717,448.968ZM519.93,447.022C519.747,447.187 519.564,447.351 519.381,447.515L519.656,447.269L519.93,447.022ZM463.437,386.707C463.312,386.626 463.187,386.543 463.064,386.458C463.22,386.565 463.378,386.67 463.537,386.771L463.437,386.707ZM481.233,376.165C481.118,376.33 481.002,376.495 480.886,376.661L481.213,376.194L481.233,376.165ZM452.757,374.668L452.912,374.91L452.757,374.668Z" style="fill:rgb(51,204,0);"/>
        </g>
        <g id="orange-points" serif:id="orange points" transform="matrix(0.771521,0,0,0.771521,451.919,150.289)">
            <g transform="matrix(2.44688,0,0,2.44688,-1855.94,559.377)">
                <circle cx="1244.17" cy="273.882" r="93.847" style="fill:rgb(255,153,0);"/>
            </g>
            <g transform="matrix(2.44688,0,0,2.44688,-1871.6,274.917)">
                <circle cx="1244.17" cy="273.882" r="93.847" style="fill:rgb(255,153,0);"/>
            </g>
            <g transform="matrix(2.44688,0,0,2.44688,-2272.33,-42.6418)">
                <circle cx="1244.17" cy="273.882" r="93.847" style="fill:rgb(255,153,0);"/>
            </g>
            <g transform="matrix(2.44688,0,0,2.44688,-2198.41,-440.524)">
                <circle cx="1244.17" cy="273.882" r="93.847" style="fill:rgb(255,153,0);"/>
            </g>
        </g>
    </g>
</svg>
